<svg width="12" height="15" viewBox="0 0 12 15" fill="none" xmlns="http://www.w3.org/2000/svg">
<path d="M9.76349 3.9597H8.71269C8.63407 3.39946 8.44822 2.95274 8.16229 2.53631L8.92715 1.72619C9.05584 1.58994 9.05584 1.3628 8.92715 1.22649C8.79845 1.09024 8.58405 1.09024 8.45536 1.22649L7.6905 2.05929C7.31881 1.72613 6.87563 1.55958 6.34663 1.47631V0.363393C6.34663 0.143809 6.21794 0 6.00354 0C5.79623 0 5.66045 0.13625 5.66045 0.363393V1.47637C5.13151 1.55964 4.70974 1.75649 4.31658 2.05935L3.55172 1.25679C3.42308 1.12054 3.20863 1.12054 3.07993 1.25679C2.9513 1.39304 2.9513 1.62018 3.07993 1.75649L3.84479 2.56661C3.53025 2.9603 3.37301 3.4297 3.29439 3.99H2.23651C2.02919 3.99 1.89342 4.12625 1.89342 4.35339C1.89342 4.57298 2.02211 4.71679 2.23651 4.71679H3.28731C3.36593 5.27702 3.55178 5.72375 3.83771 6.14018L3.07999 6.94274C2.95135 7.07905 2.95135 7.30613 3.07999 7.44244C3.15861 7.52571 3.26584 7.55601 3.31586 7.55601C3.36587 7.55601 3.5017 7.52571 3.55172 7.44244L4.31658 6.63232C4.68827 6.96548 5.13145 7.13202 5.66045 7.2153V8.32827C5.66045 8.54786 5.78909 8.69167 6.00354 8.69167C6.21086 8.69167 6.34663 8.55536 6.34663 8.32827V7.22292C6.87557 7.13964 7.29734 6.9428 7.6905 6.63994L8.44822 7.4425C8.52684 7.52577 8.63407 7.55607 8.68409 7.55607C8.76271 7.55607 8.86994 7.52577 8.91995 7.4425C9.04865 7.30619 9.04865 7.07911 8.91995 6.9428L8.16223 6.13268C8.47677 5.73899 8.63402 5.26958 8.71264 4.70929H9.76343C9.97075 4.70929 10.1065 4.57298 10.1065 4.34589C10.1066 4.12625 9.97794 3.9597 9.76349 3.9597ZM6.0036 2.14262C7.13301 2.14262 8.05512 3.11929 8.05512 4.31554C8.05512 5.51179 7.13301 6.49601 6.0036 6.49601C4.87418 6.49601 3.94494 5.51935 3.94494 4.3231C3.94494 3.12685 4.86704 2.14262 6.0036 2.14262ZM7.29841 12.4182V15H9.65149V13.6617C9.65149 13.3964 9.74972 13.131 9.9413 12.9281L11.4593 11.3203C11.8277 10.9249 12.0095 10.3733 11.9996 9.86339V5.58637C11.9996 5.24298 11.7344 4.95679 11.4052 4.95679C11.081 4.95679 10.8206 5.23774 10.8206 5.58637V8.21399C10.9287 8.26601 11.0417 8.34405 11.1203 8.43774C11.302 8.63024 11.4101 8.89559 11.4101 9.17137C11.4101 9.44714 11.3119 9.7125 11.1203 9.905L9.37145 11.7573C9.29283 11.8406 9.17004 11.8406 9.09141 11.7573C9.01279 11.674 9.01279 11.544 9.09141 11.4711L10.8501 9.60839C11.0809 9.36387 11.0809 8.96839 10.8501 8.72387C10.6192 8.47935 10.2458 8.47935 10.015 8.72387L7.83381 11.0341C7.47521 11.4192 7.29346 11.9186 7.29346 12.4182H7.29841ZM4.70654 12.4182C4.70654 11.9186 4.52479 11.4192 4.16619 11.0341L1.98502 8.72387C1.75416 8.47935 1.38078 8.47935 1.14992 8.72387C0.919053 8.96839 0.919053 9.36387 1.14992 9.60839L2.90859 11.4711C2.98721 11.544 2.98721 11.674 2.90859 11.7573C2.82996 11.8406 2.70717 11.8406 2.62855 11.7573L0.879714 9.905C0.688134 9.7125 0.589899 9.44714 0.589899 9.17137C0.589899 8.89559 0.697969 8.63024 0.879714 8.43774C0.958335 8.34411 1.07129 8.26601 1.17936 8.21399V5.58637C1.17936 5.23774 0.918997 4.95679 0.594788 4.95679C0.265635 4.95679 0.000378729 5.24298 0.000378729 5.58637V9.86339C-0.00945598 10.3733 0.172289 10.9248 0.540726 11.3203L2.0587 12.9281C2.25028 13.131 2.34851 13.3964 2.34851 13.6617V15H4.70159V12.4182H4.70654Z" fill="#F0F0F0"/>
</svg>
