<svg width="14" height="14" viewBox="0 0 14 14" fill="none" xmlns="http://www.w3.org/2000/svg">
<path d="M9.87295 10.5271C9.79067 10.4832 9.69212 10.4575 9.58736 10.4575C9.36204 10.4575 9.16542 10.5775 9.06448 10.7543L9.06304 10.757C8.33972 12.016 6.9634 12.855 5.38233 12.855C3.07029 12.855 1.19597 11.0607 1.19597 8.84726C1.19597 7.54065 1.84944 6.37967 2.86028 5.64827L2.8708 5.64094C3.01623 5.53561 3.10952 5.36982 3.10952 5.18342C3.10952 4.86741 2.84162 4.61095 2.51153 4.61095C2.37615 4.61095 2.25081 4.654 2.15083 4.72681L2.15226 4.7259C0.839569 5.67575 0 7.16785 0 8.84772C0 11.6932 2.40964 14 5.38186 14C7.41404 14 9.1836 12.9215 10.0992 11.3295L10.1131 11.303C10.159 11.2242 10.1858 11.1298 10.1858 11.03C10.1858 10.8143 10.0605 10.6261 9.8763 10.529L9.87343 10.5276L9.87295 10.5271ZM13.9833 10.9984C13.9168 10.747 13.6828 10.5642 13.4039 10.5642C13.3523 10.5642 13.302 10.5706 13.2542 10.5826L13.2585 10.5816L11.8784 10.9118L10.5862 7.2883C10.503 7.06114 10.281 6.90085 10.0198 6.90085H5.7837L5.59952 5.7559H7.66233C7.99241 5.7559 8.26031 5.49943 8.26031 5.18342C8.26031 4.86741 7.99241 4.61095 7.66233 4.61095H5.41534L5.12687 2.81566C5.58948 2.54545 5.89421 2.06503 5.89421 1.51637C5.89421 0.679185 5.18524 0 4.31027 0C3.4353 0 2.72633 0.678727 2.72633 1.51637C2.72633 2.22991 3.24107 2.82803 3.93426 2.9897L3.94526 2.99199L4.6791 7.56034C4.72455 7.83696 4.97188 8.0458 5.26991 8.0458H9.59118L10.9225 11.7802C11.0058 12.0073 11.2277 12.1676 11.4889 12.1676C11.5401 12.1676 11.5904 12.1612 11.6377 12.1498L11.6334 12.1507L13.547 11.6927C13.8091 11.6286 14 11.4042 14 11.1372C14 11.0877 13.9933 11.0401 13.9813 10.9943L13.9823 10.9984H13.9833Z" fill="#F0F0F0"/>
</svg>
